<?xml version="1.0" encoding="utf-8"?>
<!-- Generator: Adobe Illustrator 16.0.4, SVG Export Plug-In . SVG Version: 6.00 Build 0)  -->
<!DOCTYPE svg PUBLIC "-//W3C//DTD SVG 1.1//EN" "http://www.w3.org/Graphics/SVG/1.1/DTD/svg11.dtd">
<svg version="1.1" id="Layer_1" xmlns="http://www.w3.org/2000/svg" xmlns:xlink="http://www.w3.org/1999/xlink" x="0px" y="0px"
	 width="100px" height="40px" viewBox="0 0 100 40" enable-background="new 0 0 100 40" xml:space="preserve">
<g>
	<path fill="#FFFFFF" d="M39.881,6.213v17.16h9.945v3.314h-9.945v6.826h-4.173v-6.826H4.896v-1.56L33.211,6.213H39.881z
		 M35.708,23.412V8.748L13.282,23.412H35.708z"/>
	<path fill="#FFFFFF" d="M57.82,30.511c-2.379-2.38-3.004-6.2-3.004-10.219c0-3.939,1.093-7.644,3.434-9.984
		c2.77-2.769,7.604-4.836,17.121-4.836c7.488,0,12.598,1.287,15.874,2.574v3.822c-4.058-1.794-9.517-2.964-15.874-2.964
		c-7.254,0-11.506,1.404-13.689,3.588c-1.561,1.56-2.574,3.979-2.574,7.839v0.468l0.039-0.039c2.496-2.925,6.709-4.368,15.836-4.368
		c9.398,0,14.234,1.014,16.613,3.393c1.209,1.248,1.872,3.236,1.872,5.383c0,2.027-0.663,3.898-2.067,5.305
		c-2.301,2.34-6.396,3.821-17.159,3.821C64.958,34.294,60.473,33.162,57.82,30.511z M88.008,28.17c0.78-0.779,1.17-1.754,1.17-3.002
		s-0.39-2.302-1.17-3.082c-1.561-1.599-5.615-2.301-13.145-2.301c-6.436,0-11.896,0.585-13.924,2.613
		c-0.701,0.701-1.248,1.754-1.248,2.925c0,1.17,0.43,2.146,1.17,2.886c1.834,1.834,5.852,2.691,13.379,2.691
		S86.059,30.121,88.008,28.17z"/>
</g>
</svg>
