<?xml version="1.0" encoding="utf-8"?>
<!-- Generator: Adobe Illustrator 16.0.4, SVG Export Plug-In . SVG Version: 6.00 Build 0)  -->
<!DOCTYPE svg PUBLIC "-//W3C//DTD SVG 1.1//EN" "http://www.w3.org/Graphics/SVG/1.1/DTD/svg11.dtd">
<svg version="1.1" xmlns="http://www.w3.org/2000/svg" xmlns:xlink="http://www.w3.org/1999/xlink" x="0px" y="0px"
	 width="613.667px" height="291px" viewBox="0 0 613.667 291" enable-background="new 0 0 613.667 291" xml:space="preserve">
<g id="Editable_Text" display="none">
	<polygon display="inline" points="95,171.497 39,186.502 39,113.502 95,98.497 	"/>
	<g display="inline">
		<polygon fill="none" points="98.104,181.41 51.207,193.977 51.207,120.183 98.104,107.618 		"/>
		<path fill="#DDDDDD" d="M65.27,171.135l-9.493,2.544V122.28l23.028-6.17v8.262l-13.535,3.626v14.273l12.621-3.382v8.262
			l-12.621,3.382V171.135z"/>
	</g>
	<rect x="155" y="-92" display="inline" width="56" height="73"/>
	<g display="inline">
		<rect x="161.207" y="-83.656" fill="none" width="46.896" height="73.793"/>
		<path fill="#DDDDDD" d="M172.07-28.936h-3.586v-51.398h28.16v3.305H172.07v21.797h23.203v3.34H172.07V-28.936z"/>
	</g>
	<polygon display="inline" points="156,186.279 100,171.273 100,98.274 156,113.279 	"/>
	<g display="inline">
		<polygon fill="none" points="162.138,196.84 115.241,184.273 115.241,110.48 162.138,123.046 		"/>
		<path fill="#DDDDDD" d="M121.535,166.885v-51.398l9,2.412v51.398L121.535,166.885z"/>
	</g>
	<polygon display="inline" points="217,171.497 161,186.502 161,113.502 217,98.497 	"/>
	<g display="inline">
		<polygon fill="none" points="222.104,177.41 175.207,189.977 175.207,116.183 222.104,103.618 		"/>
		<path fill="#DDDDDD" d="M179.777,169.679V118.28l9.562-2.562v43.031l13.254-3.552v8.367L179.777,169.679z"/>
	</g>
	<polygon display="inline" points="278,186.279 222,171.273 222,98.274 278,113.279 	"/>
	<g display="inline">
		<g>
			<path fill="#DDDDDD" d="M244.809,167.268l-7.91-46.388l-0.313-0.104c0.36,3.494,0.541,6.648,0.54,9.46l-0.005,34.488
				l-7.177-2.374l0.003-51.398l11.913,3.938l7.111,42.75l0.227,0.075l7.081-38.058l12.081,3.994l-0.032,51.398l-7.345-2.431
				l0.018-34.84c0.001-2.883,0.136-5.792,0.403-8.728l-0.228-0.075l-7.909,41.09L244.809,167.268z"/>
		</g>
	</g>
	<polygon display="inline" points="340,171.497 284,186.502 284,113.502 340,98.497 	"/>
	<g display="inline">
		<polygon fill="none" points="343.104,179.41 296.207,191.977 296.207,118.183 343.104,105.618 		"/>
		<path fill="#DDDDDD" d="M324.191,151.236c0,4.805-1.213,8.81-3.639,12.015c-2.426,3.204-5.924,5.419-10.494,6.644
			c-4.477,1.199-8.285,1.342-11.426,0.425v-9.457c3.844,1.478,7.371,1.787,10.582,0.927c1.828-0.49,3.205-1.363,4.131-2.619
			s1.389-2.751,1.389-4.485c0-1.711-0.551-3.128-1.652-4.25c-1.102-1.123-2.918-2.213-5.449-3.269
			c-2.203-0.934-3.873-1.945-5.01-3.035c-1.137-1.09-2.016-2.418-2.637-3.986c-0.621-1.568-0.932-3.501-0.932-5.798
			c0-4.406,1.225-8.226,3.674-11.46c2.448-3.234,5.736-5.404,9.861-6.51c3.938-1.055,7.723-0.967,11.355,0.262l-3.164,8.512
			c-1.125-0.354-2.303-0.625-3.533-0.811s-2.549-0.09-3.955,0.287c-1.547,0.414-2.736,1.243-3.568,2.485
			c-0.832,1.242-1.248,2.742-1.248,4.5c0,1.734,0.498,3.113,1.494,4.135c0.996,1.022,2.736,2.021,5.221,2.996
			c3.352,1.352,5.689,3.022,7.014,5.011C323.529,145.742,324.191,148.236,324.191,151.236z"/>
	</g>
	<polygon display="inline" points="401,186.279 345,171.273 345,98.274 401,113.279 	"/>
	<g display="inline">
		<polygon fill="none" points="403.138,195.84 356.241,183.273 356.241,109.48 403.138,122.046 		"/>
		<path fill="#DDDDDD" d="M376.598,169.653l-9.527-2.553v-42.996l-9.845-2.638v-8.402l29.216,7.828v8.402l-9.844-2.638V169.653z"/>
	</g>
	<polygon display="inline" points="462,171.497 406,186.502 406,113.502 462,98.497 	"/>
	<g display="inline">
		<polygon fill="none" points="463.104,179.41 416.207,191.977 416.207,118.183 463.104,105.618 		"/>
		<path fill="#DDDDDD" d="M445.105,165.16l-2.953-12.182l-13.395,3.589l-2.953,13.765l-9.562,2.562l12.727-55.02l12.973-3.476
			l12.762,48.189L445.105,165.16z M440.359,144.986l-2.742-11.219c-0.164-0.683-0.533-2.406-1.107-5.17
			c-0.574-2.764-0.92-4.623-1.037-5.576c-0.305,2.097-0.691,4.421-1.16,6.973c-0.47,2.552-1.688,8.415-3.656,17.591L440.359,144.986
			z"/>
	</g>
	<polygon display="inline" points="522,186.279 466,171.273 466,98.274 522,113.279 	"/>
	<g display="inline">
		<polygon fill="none" points="523.334,189.999 470.241,178.282 470.241,109.48 523.334,121.197 		"/>
		<path fill="#DDDDDD" d="M510.812,172.56l-11.672-3.127l-15.891-41.489l-0.457-0.123c0.585,2.993,0.879,6.119,0.879,9.376v28.09
			l-8.859-2.373v-51.399l11.742,3.146l15.75,41.064l0.387,0.104c-0.445-2.58-0.668-5.57-0.668-8.968v-28.055l8.789,2.355V172.56z"/>
	</g>
	<polygon display="inline" points="582,171.497 526,186.502 526,113.502 582,98.497 	"/>
	<g display="inline">
		<polygon fill="none" points="587.104,179.41 540.207,191.977 540.207,118.183 587.104,105.618 		"/>
		<path fill="#DDDDDD" d="M560.562,167.449l-9.527,2.553v-42.996l-9.844,2.638v-8.402l29.215-7.829v8.402l-9.844,2.638V167.449z"/>
	</g>
</g>
<g id="Layer_3">
	<path fill="#FFFFFF" d="M37,113.502v73l56-15.005v-73L37,113.502z M77,124.381l-14,3.627v14.273l13-3.382v8.262l-13,3.382v20.602
		l-9,2.543v-51.398l23-6.17V124.381z"/>
	<path fill="#FFFFFF" d="M99,98.274v73l56,15.006v-73L99,98.274z M129,169.288l-9-2.411v-51.398l9,2.411V169.288z"/>
	<path fill="#FFFFFF" d="M161,113.502v73l56-15.005v-73L161,113.502z M203,163.574l-23,6.113v-51.398l9-2.562v43.031l14-3.551
		V163.574z"/>
	<path fill="#FFFFFF" d="M223,98.274v73l56,15.006v-73L223,98.274z M270.139,175.041l-7.341-2.431l0.025-34.84
		c0.002-2.883,0.137-5.792,0.405-8.728L263,128.968l-7.913,41.09l-8.453-2.798l-7.905-46.389l-0.313-0.104
		c0.36,3.494,0.541,6.648,0.54,9.46l0.106,34.489L232,162.342v-51.398l11.8,3.938l7.05,42.749l0.199,0.075l7.07-38.058l12.071,3.995
		L270.139,175.041z"/>
	<path fill="#FFFFFF" d="M285,113.502v73l56-15.005v-73L285,113.502z M321.518,163.26c-2.425,3.205-5.723,5.42-10.293,6.645
		c-4.477,1.199-8.225,1.341-11.225,0.425v-9.457c3,1.478,7.17,1.786,10.382,0.926c1.828-0.489,3.104-1.362,4.029-2.618
		s1.339-2.751,1.339-4.485c0-1.711-0.576-3.128-1.678-4.251s-2.931-2.212-5.462-3.268c-2.203-0.934-3.88-1.945-5.017-3.035
		s-2.019-2.419-2.64-3.987s-0.932-3.5-0.932-5.797c0-4.406,1.223-8.227,3.672-11.461s5.735-5.404,9.861-6.51
		c3.937-1.055,7.722-0.968,11.354,0.262l-3.164,8.512c-1.125-0.355-2.303-0.625-3.533-0.812c-1.23-0.186-2.549-0.091-3.955,0.286
		c-1.547,0.415-2.736,1.243-3.568,2.485c-0.832,1.243-1.248,2.743-1.248,4.501c0,1.734,0.498,3.112,1.494,4.135
		c0.996,1.022,2.736,2.021,5.221,2.996c3.352,1.352,5.689,3.022,7.014,5.011s1.987,4.483,1.987,7.483
		C325.157,156.051,323.943,160.056,321.518,163.26z"/>
	<path fill="#FFFFFF" d="M347,98.274v73l56,15.006v-73L347,98.274z M388,129.287l-9-2.638v42.996l-10-2.553v-42.996l-10-2.638
		v-8.402l29,7.829V129.287z"/>
	<g>
		<path fill="#FFFFFF" d="M409,113.502v73l56-15.005v-73L409,113.502z M448.071,165.169l-2.954-12.181l-13.395,3.589l-2.953,13.764
			l-9.562,2.562l12.727-55.02l12.973-3.476l12.762,48.19L448.071,165.169z"/>
		<path fill="#FFFFFF" d="M439.475,128.607c-0.574-2.765-0.92-4.623-1.036-5.576c-0.306,2.098-0.692,4.422-1.161,6.973
			s-1.688,8.415-3.655,17.591l9.702-2.6l-2.742-11.218C440.418,133.095,440.049,131.371,439.475,128.607z"/>
	</g>
	<path fill="#FFFFFF" d="M471,98.274v73l56,15.006v-73L471,98.274z M516,172.552l-11.783-3.128l-15.947-41.488l-0.303-0.122
		c0.586,2.993,1.033,6.119,1.033,9.376v28.09l-9-2.374v-51.398l11.631,3.146l15.693,41.064l0.365,0.104
		c-0.445-2.581-0.689-5.57-0.689-8.968v-28.055l9,2.355V172.552z"/>
	<path fill="#FFFFFF" d="M533,113.502v73l56-15.005v-73L533,113.502z M577,121.824l-9,2.638v42.996l-10,2.553v-42.996l-10,2.638
		v-8.402l29-7.828V121.824z"/>
</g>
<g id="Logo" display="none">
	<path display="inline" d="M38,113.502v73l56-15.005v-73L38,113.502z M80,117.313l-25,6.585v21.797l23-6.217v3.34l-23,6.217v22.957
		l-4,0.961v-51.398l29-7.546V117.313z"/>
	<path display="inline" d="M154-92v73h56v-73H154z M196-77h-25v22h23v3h-23v23h-4v-51h29V-77z"/>
	<path display="inline" d="M99,98.274v73l56,15.006v-73L99,98.274z M128,168.111l-3-0.961v-51.398l3,0.96V168.111z"/>
	<path display="inline" d="M160,113.502v73l56-15.005v-73L160,113.502z M206,161.426l-29,7.527v-51.398l4-0.961v48.023l25-6.566
		V161.426z"/>
	<path display="inline" d="M221,98.274v73l56,15.006v-73L221,98.274z M268,173.761l-4-0.923v-37.16c0-1.453,0.225-4.609,0.459-9.468
		l-0.229-0.076l-13.578,43.077l-3.889-1.045l-13.669-50.458l-0.363-0.075c0.234,4.984,0.27,8.133,0.27,9.446v37.441l-3-0.885
		v-51.399l5.031,1.366l11.498,42.395c1.031,3.745,1.683,6.877,1.987,9.396l0.272,0.075c0.234-1.672,0.958-4.406,2.177-8.205
		l11.594-36.313l5.441,1.413V173.761z"/>
	<path display="inline" d="M283,113.502v73l56-15.005v-73L283,113.502z M323.127,161.56c-3.152,3.353-7.396,5.729-12.623,7.129
		c-6.281,1.684-11.504,2.282-14.504,1.798V166.9c4,0.578,8.48,0.098,14.223-1.441c4.219-1.13,7.592-2.993,10.064-5.59
		c2.473-2.596,3.723-5.464,3.723-8.604c0-1.945-0.403-3.446-1.224-4.505c-0.82-1.057-2.153-1.865-4.005-2.424
		s-4.568-0.967-8.154-1.225c-5.25-0.397-8.876-1.377-10.88-2.938c-2.004-1.562-3.005-4.088-3.005-7.58
		c0-3.844,1.506-7.382,4.518-10.614c3.012-3.233,6.885-5.483,11.619-6.752c4.828-1.293,9.363-1.595,13.605-0.903l-1.301,3.442
		c-4.266-0.638-8.344-0.436-12.234,0.606c-3.797,1.017-6.82,2.707-9.069,5.067c-2.251,2.361-3.376,5.053-3.376,8.076
		c0,1.898,0.346,3.364,1.037,4.398s1.822,1.826,3.393,2.378c1.57,0.552,4.266,0.995,8.086,1.331c4.009,0.309,7.02,0.844,9.035,1.604
		s3.486,1.843,4.413,3.247c0.925,1.405,1.388,3.278,1.388,5.622C327.855,154.386,326.279,158.207,323.127,161.56z"/>
	<path display="inline" d="M344,98.274v73l56,15.006v-73L344,98.274z M390,126.19l-17-4.475v48.023l-4-0.97v-48.024l-16-4.475
		v-3.375l37,9.919V126.19z"/>
	<g display="inline">
		<path d="M431.859,126.805l-7.206,20.388l18.386-4.927l-6.996-16.653c-0.586-1.296-1.289-3.124-2.109-5.482
			C433.301,122.552,432.609,124.776,431.859,126.805z"/>
		<path d="M405,113.502v73l56-15.005v-73L405,113.502z M451.371,161.409l-7.137-16.229l-20.882,5.596l-7.172,20.062l-3.974,1.065
			l20.672-57.149l2.285-0.612l20.25,46.184L451.371,161.409z"/>
	</g>
	<path display="inline" d="M465,98.274v73l56,15.006v-73L465,98.274z M512,173.654l-3.676-0.971l-30.474-53.791l-0.276-0.075
		c0.281,5.513,0.426,9.652,0.426,12.418v33.328l-3-0.923v-51.399l3.344,0.96l30.291,53.711l-0.054,0.057
		c-0.211-4.275-0.581-8.312-0.581-12.108v-33.539l4,0.933V173.654z"/>
	<path display="inline" d="M525,113.502v73l56-15.005v-73L525,113.502z M575,115.866l-17,4.474v48.023l-4,0.971v-48.023l-16,4.475
		v-3.375l37-9.919V115.866z"/>
</g>
</svg>
